<?xml version="1.0" standalone="no"?>
<!DOCTYPE svg PUBLIC "-//W3C//DTD SVG 1.1//EN"
   "http://www.w3.org/Graphics/SVG/1.1/DTD/svg11.dtd">
<svg width="576" height="118" version="1.1"
   xmlns="http://www.w3.org/2000/svg">
   <desc>http://themesbrand.com/
   </desc>

   <g id="barcode" fill="#000000">
      <rect x="0" y="0" width="576" height="118" fill="#FFFFFF" />
      <rect x="0.00" y="0.00" width="4.00" height="100.00" />
      <rect x="6.00" y="0.00" width="2.00" height="100.00" />
      <rect x="12.00" y="0.00" width="2.00" height="100.00" />
      <rect x="22.00" y="0.00" width="2.00" height="100.00" />
      <rect x="28.00" y="0.00" width="4.00" height="100.00" />
      <rect x="40.00" y="0.00" width="2.00" height="100.00" />
      <rect x="44.00" y="0.00" width="2.00" height="100.00" />
      <rect x="50.00" y="0.00" width="8.00" height="100.00" />
      <rect x="60.00" y="0.00" width="2.00" height="100.00" />
      <rect x="66.00" y="0.00" width="2.00" height="100.00" />
      <rect x="72.00" y="0.00" width="8.00" height="100.00" />
      <rect x="82.00" y="0.00" width="2.00" height="100.00" />
      <rect x="88.00" y="0.00" width="2.00" height="100.00" />
      <rect x="92.00" y="0.00" width="2.00" height="100.00" />
      <rect x="98.00" y="0.00" width="8.00" height="100.00" />
      <rect x="110.00" y="0.00" width="6.00" height="100.00" />
      <rect x="120.00" y="0.00" width="2.00" height="100.00" />
      <rect x="126.00" y="0.00" width="4.00" height="100.00" />
      <rect x="132.00" y="0.00" width="2.00" height="100.00" />
      <rect x="136.00" y="0.00" width="6.00" height="100.00" />
      <rect x="146.00" y="0.00" width="4.00" height="100.00" />
      <rect x="154.00" y="0.00" width="2.00" height="100.00" />
      <rect x="158.00" y="0.00" width="6.00" height="100.00" />
      <rect x="168.00" y="0.00" width="4.00" height="100.00" />
      <rect x="176.00" y="0.00" width="2.00" height="100.00" />
      <rect x="182.00" y="0.00" width="8.00" height="100.00" />
      <rect x="192.00" y="0.00" width="2.00" height="100.00" />
      <rect x="198.00" y="0.00" width="2.00" height="100.00" />
      <rect x="204.00" y="0.00" width="4.00" height="100.00" />
      <rect x="216.00" y="0.00" width="2.00" height="100.00" />
      <rect x="220.00" y="0.00" width="2.00" height="100.00" />
      <rect x="224.00" y="0.00" width="4.00" height="100.00" />
      <rect x="232.00" y="0.00" width="2.00" height="100.00" />
      <rect x="242.00" y="0.00" width="8.00" height="100.00" />
      <rect x="252.00" y="0.00" width="6.00" height="100.00" />
      <rect x="260.00" y="0.00" width="2.00" height="100.00" />
      <rect x="264.00" y="0.00" width="2.00" height="100.00" />
      <rect x="268.00" y="0.00" width="4.00" height="100.00" />
      <rect x="276.00" y="0.00" width="2.00" height="100.00" />
      <rect x="286.00" y="0.00" width="2.00" height="100.00" />
      <rect x="290.00" y="0.00" width="8.00" height="100.00" />
      <rect x="302.00" y="0.00" width="2.00" height="100.00" />
      <rect x="308.00" y="0.00" width="2.00" height="100.00" />
      <rect x="314.00" y="0.00" width="2.00" height="100.00" />
      <rect x="324.00" y="0.00" width="4.00" height="100.00" />
      <rect x="330.00" y="0.00" width="2.00" height="100.00" />
      <rect x="336.00" y="0.00" width="2.00" height="100.00" />
      <rect x="342.00" y="0.00" width="8.00" height="100.00" />
      <rect x="352.00" y="0.00" width="2.00" height="100.00" />
      <rect x="358.00" y="0.00" width="2.00" height="100.00" />
      <rect x="362.00" y="0.00" width="4.00" height="100.00" />
      <rect x="374.00" y="0.00" width="4.00" height="100.00" />
      <rect x="386.00" y="0.00" width="2.00" height="100.00" />
      <rect x="390.00" y="0.00" width="2.00" height="100.00" />
      <rect x="396.00" y="0.00" width="2.00" height="100.00" />
      <rect x="406.00" y="0.00" width="2.00" height="100.00" />
      <rect x="412.00" y="0.00" width="4.00" height="100.00" />
      <rect x="418.00" y="0.00" width="2.00" height="100.00" />
      <rect x="424.00" y="0.00" width="4.00" height="100.00" />
      <rect x="432.00" y="0.00" width="6.00" height="100.00" />
      <rect x="440.00" y="0.00" width="2.00" height="100.00" />
      <rect x="450.00" y="0.00" width="2.00" height="100.00" />
      <rect x="454.00" y="0.00" width="4.00" height="100.00" />
      <rect x="462.00" y="0.00" width="2.00" height="100.00" />
      <rect x="470.00" y="0.00" width="8.00" height="100.00" />
      <rect x="480.00" y="0.00" width="2.00" height="100.00" />
      <rect x="484.00" y="0.00" width="8.00" height="100.00" />
      <rect x="494.00" y="0.00" width="6.00" height="100.00" />
      <rect x="502.00" y="0.00" width="2.00" height="100.00" />
      <rect x="506.00" y="0.00" width="2.00" height="100.00" />
      <rect x="510.00" y="0.00" width="6.00" height="100.00" />
      <rect x="520.00" y="0.00" width="4.00" height="100.00" />
      <rect x="528.00" y="0.00" width="6.00" height="100.00" />
      <rect x="536.00" y="0.00" width="4.00" height="100.00" />
      <rect x="546.00" y="0.00" width="2.00" height="100.00" />
      <rect x="550.00" y="0.00" width="4.00" height="100.00" />
      <rect x="560.00" y="0.00" width="6.00" height="100.00" />
      <rect x="568.00" y="0.00" width="2.00" height="100.00" />
      <rect x="572.00" y="0.00" width="4.00" height="100.00" />
      <text x="288.00" y="118.00" text-anchor="middle"
         font-family="Helvetica" font-size="16.0" fill="#000000" >
         http://themesbrand.com/
      </text>
   </g>
</svg>
